<svg width="14" height="21" viewBox="0 0 14 21" fill="none" xmlns="http://www.w3.org/2000/svg"><path d="M7.31 21H0.05V19.2H1.64V1.8H0.05V-1.43051e-06H6.8C7.74 -1.43051e-06 8.61 0.0999985 9.41 0.299998C10.21 0.499999 10.89 0.809999 11.45 1.23C12.01 1.65 12.44 2.2 12.74 2.88C13.06 3.54 13.22 4.33 13.22 5.25C13.22 6.49 12.92 7.58 12.32 8.52C11.72 9.46 10.81 10.1 9.59 10.44C10.15 10.56 10.7 10.76 11.24 11.04C11.78 11.32 12.26 11.68 12.68 12.12C13.06 12.56 13.37 13.07 13.61 13.65C13.85 14.23 13.97 14.88 13.97 15.6C13.97 16.5 13.78 17.29 13.4 17.97C13.04 18.63 12.56 19.18 11.96 19.62C11.32 20.08 10.6 20.43 9.8 20.67C9 20.89 8.17 21 7.31 21ZM3.53 11.34V19.2H7.16C7.84 19.2 8.47 19.12 9.05 18.96C9.65 18.8 10.18 18.55 10.64 18.21C11.08 17.91 11.43 17.52 11.69 17.04C11.95 16.56 12.08 16 12.08 15.36C12.08 14.66 11.93 14.06 11.63 13.56C11.33 13.04 10.94 12.62 10.46 12.3C9.94 11.98 9.35 11.74 8.69 11.58C8.05 11.42 7.38 11.34 6.68 11.34H3.53ZM3.53 1.8V9.54H7.1C8.4 9.54 9.43 9.17 10.19 8.43C10.95 7.67 11.33 6.69 11.33 5.49C11.33 4.81 11.21 4.23 10.97 3.75C10.75 3.27 10.44 2.89 10.04 2.61C9.66 2.33 9.21 2.13 8.69 2.01C8.19 1.87 7.63 1.8 7.01 1.8H3.53Z" fill="black"/></svg>
